<svg xmlns="http://www.w3.org/2000/svg" width="1680" height="1188" viewBox="0 0 1680 1188">
<rect x="0" y="0" width="100%" height="100%" fill="#f8fafc"/>
<text x="840" y="70" font-family="Arial" font-size="34" font-weight="bold" text-anchor="middle">AGI40 Final Electrical Review Package Index</text>
<text x="840" y="108" font-family="Arial" font-size="18" text-anchor="middle">REVIEW ONLY / NOT FIELD FINAL</text>
<text x="80" y="170" font-family="Arial" font-size="20" font-weight="bold">CASE: PLC-20260512-WASTEWATER-IO200-001</text>
<text x="80" y="205" font-family="Arial" font-size="18">GRADE: A_REVIEW_READY / READY 6/6</text>
<rect x="90" y="270" width="1480" height="70" rx="12" fill="#dcfce7" stroke="#334155"/>
<text x="120" y="313" font-family="Arial" font-size="20" font-weight="bold">01. terminal_numbers</text>
<text x="1430" y="313" font-family="Arial" font-size="18" text-anchor="middle">READY</text>
<rect x="90" y="356" width="1480" height="70" rx="12" fill="#dcfce7" stroke="#334155"/>
<text x="120" y="399" font-family="Arial" font-size="20" font-weight="bold">02. plc_slot_channel</text>
<text x="1430" y="399" font-family="Arial" font-size="18" text-anchor="middle">READY</text>
<rect x="90" y="442" width="1480" height="70" rx="12" fill="#dcfce7" stroke="#334155"/>
<text x="120" y="485" font-family="Arial" font-size="20" font-weight="bold">03. power_common</text>
<text x="1430" y="485" font-family="Arial" font-size="18" text-anchor="middle">READY</text>
<rect x="90" y="528" width="1480" height="70" rx="12" fill="#dcfce7" stroke="#334155"/>
<text x="120" y="571" font-family="Arial" font-size="20" font-weight="bold">04. protection_devices</text>
<text x="1430" y="571" font-family="Arial" font-size="18" text-anchor="middle">READY</text>
<rect x="90" y="614" width="1480" height="70" rx="12" fill="#dcfce7" stroke="#334155"/>
<text x="120" y="657" font-family="Arial" font-size="20" font-weight="bold">05. cable_wire_numbers</text>
<text x="1430" y="657" font-family="Arial" font-size="18" text-anchor="middle">READY</text>
<rect x="90" y="700" width="1480" height="70" rx="12" fill="#dcfce7" stroke="#334155"/>
<text x="120" y="743" font-family="Arial" font-size="20" font-weight="bold">06. safety_circuit_candidate</text>
<text x="1430" y="743" font-family="Arial" font-size="18" text-anchor="middle">READY</text>
<rect x="1110" y="1040" width="520" height="105" fill="white" stroke="#111"/>
<line x1="1110" y1="1070" x2="1630" y2="1070" stroke="#111"/>
<line x1="1240" y1="1040" x2="1240" y2="1145" stroke="#111"/>
<text x="1122" y="1060" font-family="Arial" font-size="12" font-weight="bold">TITLE</text>
<text x="1252" y="1060" font-family="Arial" font-size="12">Final Package Index</text>
<text x="1122" y="1092" font-family="Arial" font-size="12" font-weight="bold">STATUS</text>
<text x="1252" y="1092" font-family="Arial" font-size="12">REVIEW ONLY</text>
<text x="1122" y="1124" font-family="Arial" font-size="12" font-weight="bold">GENERATED</text>
<text x="1252" y="1124" font-family="Arial" font-size="12">2026-05-12T18:50:45</text>
</svg>