<svg xmlns="http://www.w3.org/2000/svg" width="1680" height="1188" viewBox="0 0 1680 1188">
<rect x="0" y="0" width="1680" height="1188" fill="white" stroke="#111"/>
<text x="40" y="45" font-family="Arial" font-size="26" font-weight="bold">Safety Circuit Wiring Candidate</text>
<text x="40" y="75" font-family="Arial" font-size="13">TURN60_SAFETY_CIRCUIT_WIRING_PAGE_V1 / REVIEW ONLY / Case: PLC-20260512-WASTEWATER-IO200-001</text>
<text x="740" y="610" font-family="Arial" font-size="54" fill="#999" opacity="0.18" transform="rotate(-25 740 610)">REVIEW ONLY - NOT FIELD FINAL</text>
<rect x="620" y="150" width="360" height="760" rx="16" fill="#f8f8f8" stroke="#222"/>
<text x="800" y="185" font-family="Arial" font-size="20" font-weight="bold" text-anchor="middle">Safety Relay / Controller</text>
<text x="800" y="215" font-family="Arial" font-size="13" text-anchor="middle">CH1 / CH2 / RESET / EDM / SAFE OUT</text>
<rect x="1190" y="250" width="300" height="380" rx="14" fill="#fff" stroke="#333"/>
<text x="1340" y="285" font-family="Arial" font-size="18" font-weight="bold" text-anchor="middle">Safety Output Targets</text>
<text x="1340" y="320" font-family="Arial" font-size="13" text-anchor="middle">K-SAFE_MAIN / MC_MAIN / Servo STO</text>
<text x="1340" y="350" font-family="Arial" font-size="12" text-anchor="middle">FIELD CONFIRM REQUIRED</text>
<rect x="70" y="135" width="410" height="78" rx="10" fill="#ffffff" stroke="#333"/>
<text x="85" y="159" font-family="Arial" font-size="14" font-weight="bold">SL-001 / E_STOP</text>
<text x="85" y="183" font-family="Arial" font-size="12">비상정지 회로 정상 입력</text>
<text x="85" y="201" font-family="Arial" font-size="10">CH1/CH2 field device contacts</text>
<line x1="480" y1="163" x2="620" y2="163" stroke="#111" stroke-width="1.4"/>
<line x1="480" y1="189" x2="620" y2="189" stroke="#111" stroke-width="1.4" stroke-dasharray="4 3"/>
<text x="638" y="159" font-family="Arial" font-size="10">CH1 SR-01-S01A</text>
<text x="638" y="185" font-family="Arial" font-size="10">CH2 SR-01-S01B</text>
<text x="810" y="159" font-family="Arial" font-size="10">RESET TB-RESET-01</text>
<text x="810" y="185" font-family="Arial" font-size="10">EDM TB-EDM-01</text>
<line x1="980" y1="175" x2="1190" y2="175" stroke="#111" stroke-width="1.5"/>
<text x="1208" y="179" font-family="Arial" font-size="10">SR-01-OUT01</text>
<rect x="70" y="235" width="410" height="78" rx="10" fill="#ffffff" stroke="#333"/>
<text x="85" y="259" font-family="Arial" font-size="14" font-weight="bold">SL-002 / SAFETY_RELATED</text>
<text x="85" y="283" font-family="Arial" font-size="12">현장 판넬 자동 선택</text>
<text x="85" y="301" font-family="Arial" font-size="10">CH1/CH2 field device contacts</text>
<line x1="480" y1="263" x2="620" y2="263" stroke="#111" stroke-width="1.4"/>
<line x1="480" y1="289" x2="620" y2="289" stroke="#111" stroke-width="1.4" stroke-dasharray="4 3"/>
<text x="638" y="259" font-family="Arial" font-size="10">CH1 SR-01-S02A</text>
<text x="638" y="285" font-family="Arial" font-size="10">CH2 SR-01-S02B</text>
<text x="810" y="259" font-family="Arial" font-size="10">RESET TB-RESET-01</text>
<text x="810" y="285" font-family="Arial" font-size="10">EDM TB-EDM-01</text>
<line x1="980" y1="275" x2="1190" y2="275" stroke="#111" stroke-width="1.5"/>
<text x="1208" y="279" font-family="Arial" font-size="10">SR-01-OUT02</text>
<rect x="70" y="335" width="410" height="78" rx="10" fill="#ffffff" stroke="#333"/>
<text x="85" y="359" font-family="Arial" font-size="14" font-weight="bold">SL-003 / SAFETY_RELATED</text>
<text x="85" y="383" font-family="Arial" font-size="12">현장 판넬 수동 선택</text>
<text x="85" y="401" font-family="Arial" font-size="10">CH1/CH2 field device contacts</text>
<line x1="480" y1="363" x2="620" y2="363" stroke="#111" stroke-width="1.4"/>
<line x1="480" y1="389" x2="620" y2="389" stroke="#111" stroke-width="1.4" stroke-dasharray="4 3"/>
<text x="638" y="359" font-family="Arial" font-size="10">CH1 SR-01-S03A</text>
<text x="638" y="385" font-family="Arial" font-size="10">CH2 SR-01-S03B</text>
<text x="810" y="359" font-family="Arial" font-size="10">RESET TB-RESET-01</text>
<text x="810" y="385" font-family="Arial" font-size="10">EDM TB-EDM-01</text>
<line x1="980" y1="375" x2="1190" y2="375" stroke="#111" stroke-width="1.5"/>
<text x="1208" y="379" font-family="Arial" font-size="10">SR-01-OUT03</text>
<rect x="70" y="435" width="410" height="78" rx="10" fill="#ffffff" stroke="#333"/>
<text x="85" y="459" font-family="Arial" font-size="14" font-weight="bold">SL-004 / SAFETY_RELATED</text>
<text x="85" y="483" font-family="Arial" font-size="12">복전 후 HMI 운전 재개 확인 입력</text>
<text x="85" y="501" font-family="Arial" font-size="10">CH1/CH2 field device contacts</text>
<line x1="480" y1="463" x2="620" y2="463" stroke="#111" stroke-width="1.4"/>
<line x1="480" y1="489" x2="620" y2="489" stroke="#111" stroke-width="1.4" stroke-dasharray="4 3"/>
<text x="638" y="459" font-family="Arial" font-size="10">CH1 SR-01-S04A</text>
<text x="638" y="485" font-family="Arial" font-size="10">CH2 SR-01-S04B</text>
<text x="810" y="459" font-family="Arial" font-size="10">RESET TB-RESET-01</text>
<text x="810" y="485" font-family="Arial" font-size="10">EDM TB-EDM-01</text>
<line x1="980" y1="475" x2="1190" y2="475" stroke="#111" stroke-width="1.5"/>
<text x="1208" y="479" font-family="Arial" font-size="10">SR-01-OUT04</text>
<rect x="70" y="535" width="410" height="78" rx="10" fill="#ffffff" stroke="#333"/>
<text x="85" y="559" font-family="Arial" font-size="14" font-weight="bold">SL-005 / SAFETY_RELATED</text>
<text x="85" y="583" font-family="Arial" font-size="12">알람 리셋 버튼</text>
<text x="85" y="601" font-family="Arial" font-size="10">CH1/CH2 field device contacts</text>
<line x1="480" y1="563" x2="620" y2="563" stroke="#111" stroke-width="1.4"/>
<line x1="480" y1="589" x2="620" y2="589" stroke="#111" stroke-width="1.4" stroke-dasharray="4 3"/>
<text x="638" y="559" font-family="Arial" font-size="10">CH1 SR-02-S05A</text>
<text x="638" y="585" font-family="Arial" font-size="10">CH2 SR-02-S05B</text>
<text x="810" y="559" font-family="Arial" font-size="10">RESET TB-RESET-02</text>
<text x="810" y="585" font-family="Arial" font-size="10">EDM TB-EDM-02</text>
<line x1="980" y1="575" x2="1190" y2="575" stroke="#111" stroke-width="1.5"/>
<text x="1208" y="579" font-family="Arial" font-size="10">SR-02-OUT01</text>
<rect x="70" y="635" width="410" height="78" rx="10" fill="#ffffff" stroke="#333"/>
<text x="85" y="659" font-family="Arial" font-size="14" font-weight="bold">SL-006 / SAFETY_RELATED</text>
<text x="85" y="683" font-family="Arial" font-size="12">알람 확인 버튼</text>
<text x="85" y="701" font-family="Arial" font-size="10">CH1/CH2 field device contacts</text>
<line x1="480" y1="663" x2="620" y2="663" stroke="#111" stroke-width="1.4"/>
<line x1="480" y1="689" x2="620" y2="689" stroke="#111" stroke-width="1.4" stroke-dasharray="4 3"/>
<text x="638" y="659" font-family="Arial" font-size="10">CH1 SR-02-S06A</text>
<text x="638" y="685" font-family="Arial" font-size="10">CH2 SR-02-S06B</text>
<text x="810" y="659" font-family="Arial" font-size="10">RESET TB-RESET-02</text>
<text x="810" y="685" font-family="Arial" font-size="10">EDM TB-EDM-02</text>
<line x1="980" y1="675" x2="1190" y2="675" stroke="#111" stroke-width="1.5"/>
<text x="1208" y="679" font-family="Arial" font-size="10">SR-02-OUT02</text>
<rect x="70" y="735" width="410" height="78" rx="10" fill="#ffffff" stroke="#333"/>
<text x="85" y="759" font-family="Arial" font-size="14" font-weight="bold">SL-007 / SAFETY_RELATED</text>
<text x="85" y="783" font-family="Arial" font-size="12">정전 복귀 감지</text>
<text x="85" y="801" font-family="Arial" font-size="10">CH1/CH2 field device contacts</text>
<line x1="480" y1="763" x2="620" y2="763" stroke="#111" stroke-width="1.4"/>
<line x1="480" y1="789" x2="620" y2="789" stroke="#111" stroke-width="1.4" stroke-dasharray="4 3"/>
<text x="638" y="759" font-family="Arial" font-size="10">CH1 SR-02-S07A</text>
<text x="638" y="785" font-family="Arial" font-size="10">CH2 SR-02-S07B</text>
<text x="810" y="759" font-family="Arial" font-size="10">RESET TB-RESET-02</text>
<text x="810" y="785" font-family="Arial" font-size="10">EDM TB-EDM-02</text>
<line x1="980" y1="775" x2="1190" y2="775" stroke="#111" stroke-width="1.5"/>
<text x="1208" y="779" font-family="Arial" font-size="10">SR-02-OUT03</text>
<rect x="70" y="835" width="410" height="78" rx="10" fill="#ffffff" stroke="#333"/>
<text x="85" y="859" font-family="Arial" font-size="14" font-weight="bold">SL-008 / SAFETY_RELATED</text>
<text x="85" y="883" font-family="Arial" font-size="12">상위/HMI 통신 정상</text>
<text x="85" y="901" font-family="Arial" font-size="10">CH1/CH2 field device contacts</text>
<line x1="480" y1="863" x2="620" y2="863" stroke="#111" stroke-width="1.4"/>
<line x1="480" y1="889" x2="620" y2="889" stroke="#111" stroke-width="1.4" stroke-dasharray="4 3"/>
<text x="638" y="859" font-family="Arial" font-size="10">CH1 SR-02-S08A</text>
<text x="638" y="885" font-family="Arial" font-size="10">CH2 SR-02-S08B</text>
<text x="810" y="859" font-family="Arial" font-size="10">RESET TB-RESET-02</text>
<text x="810" y="885" font-family="Arial" font-size="10">EDM TB-EDM-02</text>
<line x1="980" y1="875" x2="1190" y2="875" stroke="#111" stroke-width="1.5"/>
<text x="1208" y="879" font-family="Arial" font-size="10">SR-02-OUT04</text>
<rect x="1110" y="1040" width="520" height="105" fill="white" stroke="#111"/>
<line x1="1110" y1="1070" x2="1630" y2="1070" stroke="#111"/>
<line x1="1240" y1="1040" x2="1240" y2="1145" stroke="#111"/>
<text x="1122" y="1060" font-family="Arial" font-size="12" font-weight="bold">TITLE</text>
<text x="1252" y="1060" font-family="Arial" font-size="12">Safety Circuit Wiring Candidate</text>
<text x="1122" y="1092" font-family="Arial" font-size="12" font-weight="bold">STATUS</text>
<text x="1252" y="1092" font-family="Arial" font-size="12">REVIEW ONLY / NOT FIELD FINAL</text>
<text x="1122" y="1124" font-family="Arial" font-size="12" font-weight="bold">GENERATED</text>
<text x="1252" y="1124" font-family="Arial" font-size="12">2026-05-12T18:50:40</text>
</svg>